<?xml version="1.0" encoding="utf-8"?>
<!-- Generator: Adobe Illustrator 16.0.0, SVG Export Plug-In . SVG Version: 6.00 Build 0)  -->
<!DOCTYPE svg PUBLIC "-//W3C//DTD SVG 1.1//EN" "http://www.w3.org/Graphics/SVG/1.1/DTD/svg11.dtd">
<svg version="1.1" id="Layer_1" xmlns="http://www.w3.org/2000/svg" xmlns:xlink="http://www.w3.org/1999/xlink" x="0px" y="0px"
	 width="1411.726px" height="348.412px" viewBox="0 0 1411.726 348.412" enable-background="new 0 0 1411.726 348.412"
	 xml:space="preserve">
<g display="none">
	<path display="inline" fill="#AB0800" stroke="#AB0800" stroke-miterlimit="10" d="M578.408,347.115v-48.212
		c0-4.965,1.699-8.688,5.1-11.17c3.398-2.482,8.521-3.729,15.354-3.729h4.807v3.438h-5.555c-5.308,0-9.188,0.945-11.645,2.844
		c-2.456,1.896-3.684,4.898-3.684,9.012v5.2h20.878v3.525h-20.878v39.089L578.408,347.115L578.408,347.115z"/>
	<path display="inline" fill="#AB0800" stroke="#AB0800" stroke-miterlimit="10" d="M659.309,326.359
		c-0.426,6.312-3.075,11.483-7.955,15.512c-4.879,4.025-10.895,6.037-18.051,6.037c-3.485,0-6.809-0.544-9.959-1.63
		c-3.147-1.087-5.953-2.675-8.41-4.761c-2.524-2.114-4.448-4.52-5.768-7.205c-1.318-2.688-1.977-5.519-1.977-8.482
		c0-2.996,0.655-5.831,1.977-8.505c1.316-2.673,3.238-5.083,5.768-7.229c2.492-2.086,5.322-3.672,8.49-4.76
		c3.168-1.086,6.568-1.63,10.199-1.63c4.664,0,8.854,0.896,12.576,2.688c3.721,1.792,6.86,4.447,9.426,7.977l-35.992,19.831
		l-2.082-2.864l31.937-17.628c-1.959-2.203-4.291-3.878-6.996-5.021c-2.705-1.146-5.695-1.722-8.972-1.722
		c-6.055,0-11.172,1.814-15.354,5.442c-4.184,3.629-6.273,8.071-6.273,13.331c0,5.229,2.072,9.648,6.224,13.265
		c4.146,3.613,9.211,5.42,15.188,5.42c5.875,0,10.787-1.667,14.738-5.002c3.953-3.334,6.146-7.688,6.568-13.062L659.309,326.359
		L659.309,326.359z"/>
	<path display="inline" fill="#AB0800" stroke="#AB0800" stroke-miterlimit="10" d="M718.263,326.359
		c-0.428,6.312-3.08,11.483-7.957,15.512c-4.878,4.025-10.894,6.037-18.048,6.037c-3.49,0-6.809-0.544-9.959-1.63
		c-3.147-1.087-5.955-2.675-8.41-4.761c-2.526-2.114-4.448-4.52-5.768-7.205c-1.318-2.688-1.977-5.519-1.977-8.482
		c0-2.996,0.653-5.831,1.977-8.505c1.316-2.673,3.238-5.083,5.768-7.229c2.49-2.086,5.32-3.672,8.49-4.76
		c3.168-1.086,6.568-1.63,10.199-1.63c4.662,0,8.854,0.896,12.576,2.688c3.718,1.792,6.861,4.447,9.423,7.977l-35.99,19.831
		l-2.084-2.864l31.939-17.628c-1.959-2.203-4.292-3.878-6.997-5.021c-2.705-1.146-5.695-1.722-8.976-1.722
		c-6.053,0-11.17,1.814-15.352,5.442c-4.186,3.629-6.275,8.071-6.275,13.331c0,5.229,2.074,9.648,6.226,13.265
		c4.145,3.613,9.211,5.42,15.188,5.42c5.873,0,10.787-1.667,14.738-5.002c3.951-3.334,6.141-7.688,6.568-13.062L718.263,326.359
		L718.263,326.359z"/>
	<path display="inline" fill="#AB0800" stroke="#AB0800" stroke-miterlimit="10" d="M728.675,347.115v-63.106h4.486v63.106H728.675z
		"/>
	<path display="inline" fill="#AB0800" stroke="#AB0800" stroke-miterlimit="10" d="M775.935,292.427h4.484v12.074h18.264v3.525
		h-18.264v23.841c0,4.114,1.209,7.109,3.631,8.99c2.42,1.881,6.271,2.816,11.535,2.816h3.096v3.438h-2.295
		c-6.836,0-11.951-1.241-15.354-3.727c-3.4-2.48-5.102-6.205-5.102-11.173v-39.79h0.004V292.427L775.935,292.427z"/>
	<path display="inline" fill="#AB0800" stroke="#AB0800" stroke-miterlimit="10" d="M808.724,347.115v-63.106h4.385v28.072
		c1.986-2.703,4.512-4.788,7.555-6.258c3.045-1.469,6.395-2.203,10.061-2.203c6.123,0,10.992,1.695,14.605,5.09
		c3.613,3.396,5.42,8.014,5.42,13.859v24.546h-4.379v-25.251c0-4.349-1.469-7.89-4.404-10.621
		c-2.938-2.729-6.686-4.099-11.242-4.099c-5.127,0-9.346,1.568-12.65,4.716c-3.312,3.145-4.971,7.169-4.971,12.074v23.181H808.724
		L808.724,347.115z"/>
	<path display="inline" fill="#AB0800" stroke="#AB0800" stroke-miterlimit="10" d="M912.697,326.359
		c-0.428,6.312-3.08,11.483-7.957,15.512s-10.896,6.037-18.049,6.037c-3.488,0-6.812-0.544-9.959-1.63
		c-3.15-1.087-5.955-2.675-8.41-4.761c-2.529-2.114-4.451-4.52-5.771-7.205c-1.314-2.688-1.977-5.519-1.977-8.482
		c0-2.996,0.658-5.831,1.977-8.505c1.316-2.673,3.238-5.083,5.771-7.229c2.488-2.086,5.318-3.672,8.488-4.76
		c3.17-1.086,6.566-1.63,10.197-1.63c4.664,0,8.855,0.896,12.576,2.688c3.719,1.792,6.861,4.447,9.426,7.977l-35.988,19.831
		l-2.084-2.864l31.934-17.628c-1.957-2.203-4.289-3.878-6.994-5.021c-2.707-1.146-5.697-1.722-8.973-1.722
		c-6.053,0-11.17,1.814-15.355,5.442c-4.184,3.629-6.271,8.071-6.271,13.331c0,5.229,2.072,9.648,6.223,13.265
		c4.146,3.613,9.211,5.42,15.191,5.42c5.875,0,10.785-1.667,14.734-5.002c3.953-3.334,6.146-7.688,6.568-13.062L912.697,326.359
		L912.697,326.359z"/>
	<path display="inline" fill="#AB0800" stroke="#AB0800" stroke-miterlimit="10" d="M952.21,347.115v-48.212
		c0-4.965,1.701-8.688,5.105-11.17c3.395-2.482,8.516-3.729,15.352-3.729h4.809v3.438h-5.557c-5.305,0-9.184,0.945-11.641,2.844
		s-3.689,4.898-3.689,9.012v5.2h20.881v3.525h-20.881v39.089L952.21,347.115L952.21,347.115z"/>
	<path display="inline" fill="#AB0800" stroke="#AB0800" stroke-miterlimit="10" d="M984.574,347.115v-42.614h4.379v8.329
		c2.061-2.82,4.619-4.942,7.664-6.368c3.043-1.425,6.504-2.137,10.385-2.137c0.354,0,0.766,0.015,1.229,0.044
		c0.467,0.028,1.068,0.088,1.816,0.176v3.569c-0.072,0-0.18,0-0.32,0c-1.674-0.116-2.795-0.177-3.361-0.177
		c-5.059,0-9.225,1.559-12.496,4.672c-3.275,3.11-4.912,7.096-4.912,11.938v22.563L984.574,347.115L984.574,347.115L984.574,347.115
		z"/>
	<path display="inline" fill="#AB0800" stroke="#AB0800" stroke-miterlimit="10" d="M1065.261,326.359
		c-0.428,6.312-3.08,11.483-7.957,15.512c-4.879,4.025-10.895,6.037-18.049,6.037c-3.49,0-6.809-0.544-9.961-1.63
		c-3.15-1.087-5.953-2.675-8.41-4.761c-2.521-2.114-4.449-4.52-5.768-7.205c-1.316-2.688-1.975-5.519-1.975-8.482
		c0-2.996,0.656-5.831,1.975-8.505c1.318-2.673,3.24-5.083,5.768-7.229c2.492-2.086,5.322-3.672,8.49-4.76
		c3.17-1.086,6.568-1.63,10.201-1.63c4.662,0,8.854,0.896,12.576,2.688c3.719,1.792,6.859,4.447,9.424,7.977l-35.992,19.831
		l-2.082-2.864l31.936-17.628c-1.959-2.203-4.291-3.878-6.992-5.021c-2.705-1.146-5.695-1.722-8.977-1.722
		c-6.053,0-11.17,1.814-15.354,5.442c-4.186,3.629-6.273,8.071-6.273,13.331c0,5.229,2.072,9.648,6.227,13.265
		c4.145,3.613,9.211,5.42,15.188,5.42c5.873,0,10.787-1.667,14.738-5.002c3.951-3.334,6.141-7.688,6.568-13.062L1065.261,326.359
		L1065.261,326.359z"/>
	<path display="inline" fill="#AB0800" stroke="#AB0800" stroke-miterlimit="10" d="M1124.216,326.359
		c-0.428,6.312-3.08,11.483-7.957,15.512c-4.879,4.025-10.895,6.037-18.049,6.037c-3.49,0-6.809-0.544-9.961-1.63
		c-3.15-1.087-5.953-2.675-8.41-4.761c-2.527-2.114-4.449-4.52-5.768-7.205c-1.316-2.688-1.977-5.519-1.977-8.482
		c0-2.996,0.658-5.831,1.977-8.505c1.316-2.673,3.24-5.083,5.768-7.229c2.492-2.086,5.322-3.672,8.49-4.76
		c3.17-1.086,6.568-1.63,10.201-1.63c4.662,0,8.854,0.896,12.576,2.688c3.719,1.792,6.859,4.447,9.424,7.977l-35.992,19.831
		l-2.082-2.864l31.934-17.628c-1.959-2.203-4.291-3.878-6.996-5.021c-2.699-1.146-5.689-1.722-8.971-1.722
		c-6.053,0-11.17,1.814-15.354,5.442c-4.186,3.629-6.273,8.071-6.273,13.331c0,5.229,2.072,9.648,6.221,13.265
		c4.146,3.613,9.217,5.42,15.193,5.42c5.873,0,10.787-1.667,14.738-5.002c3.951-3.334,6.141-7.688,6.568-13.062L1124.216,326.359
		L1124.216,326.359z"/>
	<path display="inline" fill="#AB0800" stroke="#AB0800" stroke-miterlimit="10" d="M1178.47,284.009h4.486v39.354
		c0,3.145-0.285,5.839-0.855,8.087c-0.562,2.247-1.477,4.224-2.723,5.927c-2.527,3.379-5.732,5.979-9.611,7.8
		c-3.881,1.822-8.148,2.732-12.811,2.732c-7.48,0-13.662-2.085-18.561-6.258c-4.895-4.171-7.346-9.444-7.346-15.82
		c0-2.996,0.623-5.824,1.869-8.483c1.246-2.654,3.064-5.046,5.447-7.157c2.42-2.115,5.225-3.728,8.41-4.825
		c3.186-1.104,6.646-1.652,10.387-1.652c3.312,0,6.461,0.483,9.453,1.454c2.99,0.97,5.783,2.409,8.383,4.318v4.892
		c-2.561-2.408-5.322-4.2-8.275-5.376c-2.951-1.175-6.143-1.763-9.561-1.763c-6.191,0-11.311,1.763-15.352,5.288
		c-4.041,3.521-6.062,7.99-6.062,13.396c0,5.352,2.047,9.799,6.145,13.354c4.094,3.555,9.186,5.332,15.271,5.332
		c6.479,0,11.65-1.892,15.514-5.663c3.861-3.774,5.793-8.864,5.793-15.271L1178.47,284.009L1178.47,284.009z"/>
	<path display="inline" fill="#AB0800" stroke="#AB0800" stroke-miterlimit="10" d="M1192.835,325.83
		c0-2.967,0.658-5.779,1.975-8.438c1.318-2.657,3.24-5.093,5.771-7.294c2.457-2.058,5.26-3.638,8.41-4.735
		c3.148-1.104,6.471-1.652,9.961-1.652c3.488,0,6.809,0.551,9.959,1.652c3.148,1.101,5.953,2.682,8.41,4.735
		c2.49,2.113,4.387,4.512,5.688,7.186c1.299,2.674,1.949,5.521,1.949,8.549c0,2.997-0.65,5.832-1.949,8.505
		c-1.301,2.674-3.191,5.068-5.688,7.188c-2.457,2.086-5.262,3.673-8.41,4.76c-3.15,1.086-6.471,1.63-9.959,1.63
		c-3.49,0-6.812-0.544-9.961-1.63c-3.15-1.087-5.953-2.674-8.41-4.76c-2.527-2.178-4.449-4.602-5.771-7.271
		C1193.496,331.574,1192.835,328.769,1192.835,325.83z M1197.537,325.742c0,5.229,2.072,9.649,6.221,13.265
		c4.146,3.613,9.211,5.42,15.193,5.42c5.939,0,10.979-1.812,15.107-5.438c4.131-3.628,6.195-8.042,6.195-13.242
		c0-5.259-2.066-9.688-6.195-13.287c-4.129-3.598-9.168-5.396-15.107-5.396c-5.982,0-11.047,1.809-15.193,5.422
		C1199.609,316.091,1197.537,320.513,1197.537,325.742z"/>
	<path display="inline" fill="#AB0800" stroke="#AB0800" stroke-miterlimit="10" d="M1255.048,347.115v-26.089
		c0-5.376,1.699-9.606,5.105-12.691c3.395-3.085,8.029-4.627,13.904-4.627c3.562,0,6.701,0.689,9.432,2.07
		c2.723,1.382,5.045,3.453,6.969,6.215c2.029-2.791,4.395-4.87,7.104-6.236c2.703-1.365,5.818-2.049,9.346-2.049
		c5.873,0,10.525,1.542,13.965,4.627c3.434,3.085,5.152,7.315,5.152,12.691v26.089h-4.486v-27.234c0-3.814-1.344-6.911-4.031-9.272
		c-2.686-2.364-6.15-3.552-10.387-3.552c-4.307,0-7.797,1.188-10.467,3.552c-2.67,2.361-4.004,5.458-4.004,9.272v27.234h-4.381
		v-27.234c0-3.814-1.336-6.911-4.006-9.272c-2.67-2.364-6.141-3.552-10.412-3.552c-4.236,0-7.697,1.188-10.387,3.552
		c-2.688,2.361-4.031,5.458-4.031,9.272v27.234H1255.048L1255.048,347.115z"/>
</g>
<g>
	<g>
		<path fill="#FCFCFC" d="M0,269.106v-108.7c0-22.401,5.848-40.028,17.547-52.881C29.242,94.671,45.199,88.246,65.41,88.246
			c12.248,0,23.061,2.877,32.431,8.629c9.37,5.756,17.363,14.385,23.978,25.894c6.982-11.631,15.127-20.29,24.438-25.982
			c9.309-5.689,20.027-8.537,32.154-8.537c20.212,0,36.227,6.426,48.049,19.279c11.819,12.853,17.73,30.479,17.73,52.881v108.7
			h-15.434V155.633c0-15.912-4.625-28.797-13.873-38.649c-9.25-9.854-21.162-14.78-35.737-14.78
			c-14.822,0-26.825,4.929-36.013,14.78c-9.188,9.854-13.781,22.737-13.781,38.649V269.11h-15.066V155.633
			c0-15.912-4.594-28.797-13.78-38.649c-9.187-9.854-21.13-14.78-35.829-14.78c-14.578,0-26.49,4.929-35.737,14.78
			c-9.25,9.854-13.872,22.737-13.872,38.649V269.11L0,269.106L0,269.106z"/>
		<path fill="#FCFCFC" d="M291.227,269.106V6.169h35.097v262.938H291.227L291.227,269.106z"/>
		<path fill="#FCFCFC" d="M370.97,269.106v-98.234c0-26.194,6.981-46.942,20.946-62.245c13.964-15.301,32.582-22.952,55.855-22.952
			c23.271,0,41.826,7.651,55.674,22.952c13.842,15.303,20.764,36.051,20.764,62.245v98.234h-31.971v-104.11
			c0-14.198-4.139-25.766-12.402-34.703c-8.27-8.934-18.957-13.403-32.062-13.403c-12.984,0-23.676,4.473-32.062,13.403
			c-8.392,8.938-12.586,20.505-12.586,34.703v104.11H370.97z"/>
		<path fill="#FCFCFC" d="M577.31,88.98l51.635,141.75l51.442-141.75h33.255l-60.265,162.132c-2.818,7.591-6.219,13.1-10.197,16.521
			c-3.979,3.43-8.852,5.145-14.604,5.145c-5.761,0-10.564-1.715-14.422-5.145c-3.859-3.426-7.199-8.935-10.019-16.521L544.239,88.98
			H577.31z"/>
		<path fill="#FCFCFC" d="M724.486,178.767c0-12.484,2.32-24.355,6.979-35.62c4.652-11.264,11.395-21.42,20.211-30.48
			c8.695-8.812,18.467-15.516,29.311-20.104c10.84-4.594,22.385-6.889,34.635-6.889c12.246,0,23.887,2.295,34.91,6.889
			c11.02,4.59,20.82,11.292,29.395,20.104c8.695,8.814,15.344,18.912,19.939,30.297c4.594,11.384,6.891,23.318,6.891,35.809
			c0,12.729-2.297,24.815-6.891,36.265c-4.596,11.448-11.24,21.573-19.939,30.388c-8.574,8.812-18.375,15.52-29.395,20.106
			c-11.023,4.59-22.664,6.885-34.91,6.885c-12.25,0-23.795-2.295-34.635-6.885c-10.844-4.591-20.611-11.294-29.311-20.106
			c-8.816-8.934-15.559-19.096-20.211-30.479C726.808,203.556,724.486,191.5,724.486,178.767z M758.109,178.399
			c0,17.508,5.604,32.349,16.811,44.523c11.209,12.186,24.773,18.271,40.699,18.271c15.922,0,29.49-6.088,40.697-18.271
			c11.209-12.179,16.811-27.02,16.811-44.523c0-17.38-5.574-32.132-16.721-44.25s-24.744-18.182-40.789-18.182
			c-15.926,0-29.49,6.062-40.699,18.182C763.712,146.267,758.109,161.02,758.109,178.399z"/>
		<path fill="#FCFCFC" d="M936.705,37.751c0-5.385,1.895-9.975,5.693-13.771c3.797-3.793,8.451-5.691,13.967-5.691
			c5.512,0,10.135,1.867,13.871,5.6c3.732,3.736,5.604,8.355,5.604,13.863c0,5.632-1.869,10.374-5.604,14.23
			c-3.736,3.854-8.359,5.781-13.871,5.781c-5.396,0-10.018-1.955-13.873-5.876C938.632,47.974,936.705,43.26,936.705,37.751z
			 M940.195,269.106V88.98h32.338v180.126H940.195L940.195,269.106z"/>
		<path fill="#FCFCFC" d="M1127.974,119.827h-13.963c-22.664,0-40.729,5.417-54.203,16.25
			c-13.477,10.833-20.213,25.247-20.213,43.24c0,17.875,6.771,32.226,20.311,43.059c13.527,10.834,31.564,16.25,54.105,16.25h13.963
			v30.48h-16.168c-32.219,0-57.904-8.231-77.076-24.696c-19.176-16.462-28.758-38.345-28.758-65.644
			c0-14.688,3.434-28.396,10.289-41.133c6.859-12.729,16.604-23.438,29.215-32.132c8.818-5.877,18.189-10.1,28.111-12.67
			s22.66-3.854,38.219-3.854h16.168V119.827L1127.974,119.827z"/>
		<path fill="#FCFCFC" d="M1332.294,189.417c-4.533,25.707-14.947,46.027-31.236,60.961c-16.293,14.938-36.137,22.4-59.525,22.4
			c-7.965,0-15.834-1.072-23.611-3.213c-7.779-2.145-15.098-5.293-21.957-9.457c-14.455-8.812-25.662-20.317-33.623-34.521
			c-7.965-14.198-11.941-29.806-11.941-46.819c0-12.485,2.297-24.356,6.891-35.621c4.592-11.264,11.236-21.42,19.936-30.48
			c8.695-8.934,18.588-15.728,29.676-20.381c11.084-4.65,22.752-6.978,35.002-6.978c18.25,0,34.57,4.806,48.971,14.41
			c14.393,9.611,26.059,23.599,35.002,41.957l-118.15,65.367l-13.596-24.421l87.643-48.843
			c-5.391-5.996-11.453-10.525-18.188-13.587c-6.738-3.061-14.088-4.592-22.049-4.592c-16.17,0-29.797,6.029-40.887,18.087
			c-11.088,12.059-16.629,26.963-16.629,44.71c0,17.627,5.574,32.5,16.725,44.615c11.145,12.119,24.738,18.182,40.791,18.182
			c15.311,0,28.141-5.049,38.488-15.147c10.355-10.098,16.812-23.962,19.389-41.589L1332.294,189.417z"/>
	</g>
	<g>
		<path fill="#FCFCFC" d="M1360.224,103c-28.395,0-51.5-23.103-51.5-51.5c0-28.396,23.105-51.5,51.5-51.5
			c28.398,0,51.5,23.104,51.5,51.5C1411.724,79.897,1388.625,103,1360.224,103z M1360.224,11c-22.332,0-40.5,18.168-40.5,40.5
			s18.168,40.5,40.5,40.5s40.5-18.168,40.5-40.5S1382.556,11,1360.224,11z"/>
	</g>
	<g enable-background="new    ">
		<path fill="#FCFCFC" d="M1338.833,77.762V24.075h22.812c5.736,0,9.904,0.482,12.508,1.446c2.6,0.965,4.682,2.68,6.242,5.146
			c1.562,2.466,2.346,5.286,2.346,8.46c0,4.027-1.188,7.354-3.555,9.979c-2.365,2.625-5.906,4.278-10.617,4.963
			c2.344,1.367,4.275,2.868,5.805,4.504c1.525,1.636,3.582,4.541,6.17,8.716l6.555,10.474h-12.963l-7.838-11.682
			c-2.783-4.176-4.688-6.806-5.713-7.893c-1.025-1.086-2.111-1.831-3.26-2.233c-1.146-0.403-2.965-0.604-5.455-0.604h-2.197v22.411
			H1338.833L1338.833,77.762z M1349.671,46.78h8.021c5.197,0,8.445-0.22,9.738-0.659c1.295-0.439,2.309-1.196,3.041-2.271
			c0.732-1.075,1.1-2.418,1.1-4.028c0-1.808-0.482-3.266-1.447-4.376c-0.965-1.111-2.324-1.813-4.082-2.106
			c-0.879-0.121-3.516-0.183-7.91-0.183h-8.461V46.78L1349.671,46.78z"/>
	</g>
</g>
</svg>
