<?xml version="1.0" encoding="utf-8"?>
<!-- Generator: Adobe Illustrator 16.0.0, SVG Export Plug-In . SVG Version: 6.00 Build 0)  -->
<!DOCTYPE svg PUBLIC "-//W3C//DTD SVG 1.1//EN" "http://www.w3.org/Graphics/SVG/1.1/DTD/svg11.dtd">
<svg version="1.1" id="Layer_1" xmlns="http://www.w3.org/2000/svg" xmlns:xlink="http://www.w3.org/1999/xlink" x="0px" y="0px"
	 width="1411.726px" height="348.412px" viewBox="0 0 1411.726 348.412" enable-background="new 0 0 1411.726 348.412"
	 xml:space="preserve">
<g display="none">
	<path display="inline" fill="#AB0800" stroke="#AB0800" stroke-miterlimit="10" d="M578.408,347.115v-48.211
		c0-4.965,1.699-8.688,5.1-11.171c3.398-2.482,8.521-3.728,15.354-3.728h4.807v3.438h-5.555c-5.307,0-9.187,0.945-11.644,2.843
		c-2.456,1.896-3.684,4.899-3.684,9.012v5.2h20.878v3.525h-20.878v39.089L578.408,347.115L578.408,347.115z"/>
	<path display="inline" fill="#AB0800" stroke="#AB0800" stroke-miterlimit="10" d="M659.309,326.359
		c-0.426,6.313-3.076,11.484-7.955,15.512c-4.879,4.025-10.895,6.037-18.051,6.037c-3.486,0-6.809-0.544-9.959-1.63
		c-3.148-1.087-5.953-2.674-8.41-4.76c-2.525-2.115-4.449-4.52-5.768-7.205c-1.318-2.688-1.977-5.519-1.977-8.483
		c0-2.996,0.656-5.831,1.977-8.505c1.316-2.673,3.238-5.083,5.768-7.229c2.492-2.086,5.322-3.672,8.49-4.76
		c3.168-1.086,6.568-1.63,10.199-1.63c4.664,0,8.854,0.896,12.576,2.688c3.721,1.792,6.861,4.447,9.426,7.976l-35.992,19.831
		l-2.082-2.864l31.936-17.628c-1.959-2.203-4.291-3.878-6.996-5.021c-2.705-1.146-5.695-1.722-8.971-1.722
		c-6.055,0-11.172,1.814-15.354,5.442c-4.184,3.629-6.273,8.072-6.273,13.331c0,5.229,2.072,9.649,6.223,13.265
		c4.146,3.613,9.211,5.42,15.189,5.42c5.875,0,10.787-1.667,14.738-5.002c3.953-3.334,6.145-7.688,6.568-13.062L659.309,326.359
		L659.309,326.359z"/>
	<path display="inline" fill="#AB0800" stroke="#AB0800" stroke-miterlimit="10" d="M718.264,326.359
		c-0.428,6.313-3.08,11.484-7.957,15.512c-4.879,4.025-10.895,6.037-18.049,6.037c-3.49,0-6.809-0.544-9.959-1.63
		c-3.148-1.087-5.955-2.674-8.41-4.76c-2.527-2.115-4.449-4.52-5.768-7.205c-1.318-2.688-1.977-5.519-1.977-8.483
		c0-2.996,0.654-5.831,1.977-8.505c1.316-2.673,3.238-5.083,5.768-7.229c2.49-2.086,5.32-3.672,8.49-4.76
		c3.168-1.086,6.568-1.63,10.199-1.63c4.662,0,8.855,0.896,12.576,2.688c3.719,1.792,6.861,4.447,9.424,7.976l-35.99,19.831
		l-2.084-2.864l31.938-17.628c-1.959-2.203-4.291-3.878-6.996-5.021c-2.705-1.146-5.695-1.722-8.975-1.722
		c-6.053,0-11.17,1.814-15.352,5.442c-4.186,3.629-6.275,8.072-6.275,13.331c0,5.229,2.074,9.649,6.225,13.265
		c4.145,3.613,9.211,5.42,15.189,5.42c5.873,0,10.787-1.667,14.738-5.002c3.951-3.334,6.141-7.688,6.568-13.062L718.264,326.359
		L718.264,326.359z"/>
	<path display="inline" fill="#AB0800" stroke="#AB0800" stroke-miterlimit="10" d="M728.676,347.115v-63.106h4.486v63.106H728.676z
		"/>
	<path display="inline" fill="#AB0800" stroke="#AB0800" stroke-miterlimit="10" d="M775.936,292.427h4.484v12.074h18.264v3.525
		H780.42v23.841c0,4.114,1.209,7.11,3.631,8.99c2.42,1.881,6.27,2.817,11.535,2.817h3.096v3.438h-2.295
		c-6.836,0-11.951-1.241-15.354-3.726c-3.4-2.481-5.102-6.205-5.102-11.173v-39.79h0.004V292.427z"/>
	<path display="inline" fill="#AB0800" stroke="#AB0800" stroke-miterlimit="10" d="M808.725,347.115v-63.106h4.383v28.072
		c1.988-2.703,4.512-4.788,7.555-6.258c3.045-1.469,6.396-2.203,10.062-2.203c6.123,0,10.992,1.696,14.605,5.09
		c3.613,3.396,5.42,8.014,5.42,13.859v24.546h-4.379v-25.251c0-4.348-1.469-7.889-4.404-10.621
		c-2.938-2.729-6.686-4.098-11.242-4.098c-5.127,0-9.346,1.568-12.652,4.715c-3.312,3.145-4.969,7.169-4.969,12.075v23.18H808.725
		L808.725,347.115z"/>
	<path display="inline" fill="#AB0800" stroke="#AB0800" stroke-miterlimit="10" d="M912.696,326.359
		c-0.426,6.313-3.08,11.484-7.957,15.512s-10.895,6.037-18.049,6.037c-3.488,0-6.811-0.544-9.959-1.63
		c-3.15-1.087-5.955-2.674-8.41-4.76c-2.529-2.115-4.451-4.52-5.77-7.205c-1.316-2.688-1.977-5.519-1.977-8.483
		c0-2.996,0.658-5.831,1.977-8.505c1.316-2.673,3.238-5.083,5.77-7.229c2.49-2.086,5.32-3.672,8.49-4.76
		c3.168-1.086,6.566-1.63,10.197-1.63c4.664,0,8.855,0.896,12.576,2.688c3.719,1.792,6.861,4.447,9.426,7.976l-35.99,19.831
		l-2.084-2.864l31.934-17.628c-1.957-2.203-4.289-3.878-6.994-5.021c-2.707-1.146-5.697-1.722-8.973-1.722
		c-6.051,0-11.17,1.814-15.354,5.442c-4.184,3.629-6.273,8.072-6.273,13.331c0,5.229,2.074,9.649,6.223,13.265
		c4.146,3.613,9.211,5.42,15.191,5.42c5.875,0,10.787-1.667,14.736-5.002c3.953-3.334,6.145-7.688,6.568-13.062L912.696,326.359
		L912.696,326.359z"/>
	<path display="inline" fill="#AB0800" stroke="#AB0800" stroke-miterlimit="10" d="M952.211,347.115v-48.211
		c0-4.965,1.701-8.688,5.105-11.171c3.395-2.482,8.516-3.728,15.352-3.728h4.809v3.438h-5.557c-5.305,0-9.184,0.945-11.641,2.843
		s-3.689,4.899-3.689,9.012v5.2h20.881v3.525H956.59v39.089L952.211,347.115L952.211,347.115z"/>
	<path display="inline" fill="#AB0800" stroke="#AB0800" stroke-miterlimit="10" d="M984.573,347.115v-42.614h4.379v8.329
		c2.062-2.82,4.619-4.942,7.664-6.368c3.043-1.425,6.504-2.137,10.385-2.137c0.355,0,0.766,0.015,1.229,0.044
		c0.467,0.029,1.068,0.088,1.816,0.176v3.569c-0.072,0-0.18,0-0.32,0c-1.674-0.116-2.795-0.176-3.361-0.176
		c-5.059,0-9.225,1.558-12.496,4.671c-3.275,3.111-4.912,7.096-4.912,11.939v22.563L984.573,347.115L984.573,347.115
		L984.573,347.115z"/>
	<path display="inline" fill="#AB0800" stroke="#AB0800" stroke-miterlimit="10" d="M1065.262,326.359
		c-0.428,6.313-3.08,11.484-7.957,15.512c-4.879,4.025-10.895,6.037-18.049,6.037c-3.49,0-6.809-0.544-9.961-1.63
		c-3.15-1.087-5.953-2.674-8.41-4.76c-2.523-2.115-4.449-4.52-5.768-7.205c-1.316-2.688-1.975-5.519-1.975-8.483
		c0-2.996,0.656-5.831,1.975-8.505c1.318-2.673,3.24-5.083,5.768-7.229c2.492-2.086,5.322-3.672,8.49-4.76
		c3.17-1.086,6.568-1.63,10.201-1.63c4.662,0,8.854,0.896,12.576,2.688c3.719,1.792,6.859,4.447,9.424,7.976l-35.992,19.831
		l-2.082-2.864l31.934-17.628c-1.959-2.203-4.291-3.878-6.992-5.021c-2.705-1.146-5.695-1.722-8.975-1.722
		c-6.053,0-11.17,1.814-15.354,5.442c-4.186,3.629-6.273,8.072-6.273,13.331c0,5.229,2.072,9.649,6.225,13.265
		c4.145,3.613,9.211,5.42,15.189,5.42c5.873,0,10.787-1.667,14.738-5.002c3.951-3.334,6.141-7.688,6.568-13.062L1065.262,326.359
		L1065.262,326.359z"/>
	<path display="inline" fill="#AB0800" stroke="#AB0800" stroke-miterlimit="10" d="M1124.217,326.359
		c-0.428,6.313-3.08,11.484-7.957,15.512c-4.879,4.025-10.895,6.037-18.049,6.037c-3.49,0-6.809-0.544-9.961-1.63
		c-3.15-1.087-5.953-2.674-8.41-4.76c-2.527-2.115-4.449-4.52-5.768-7.205c-1.316-2.688-1.977-5.519-1.977-8.483
		c0-2.996,0.658-5.831,1.977-8.505c1.316-2.673,3.24-5.083,5.768-7.229c2.492-2.086,5.322-3.672,8.49-4.76
		c3.17-1.086,6.568-1.63,10.201-1.63c4.662,0,8.854,0.896,12.576,2.688c3.719,1.792,6.859,4.447,9.424,7.976l-35.992,19.831
		l-2.082-2.864l31.934-17.628c-1.959-2.203-4.291-3.878-6.996-5.021c-2.701-1.146-5.691-1.722-8.971-1.722
		c-6.053,0-11.17,1.814-15.354,5.442c-4.186,3.629-6.273,8.072-6.273,13.331c0,5.229,2.072,9.649,6.221,13.265
		c4.146,3.613,9.215,5.42,15.193,5.42c5.873,0,10.787-1.667,14.738-5.002c3.951-3.334,6.141-7.688,6.568-13.062L1124.217,326.359
		L1124.217,326.359z"/>
	<path display="inline" fill="#AB0800" stroke="#AB0800" stroke-miterlimit="10" d="M1178.471,284.009h4.486v39.354
		c0,3.145-0.285,5.839-0.855,8.087c-0.564,2.247-1.477,4.224-2.723,5.927c-2.527,3.379-5.732,5.979-9.611,7.8
		c-3.881,1.822-8.15,2.732-12.812,2.732c-7.48,0-13.662-2.085-18.559-6.258c-4.896-4.171-7.346-9.444-7.346-15.82
		c0-2.996,0.623-5.824,1.869-8.483c1.246-2.655,3.064-5.046,5.447-7.158c2.42-2.115,5.225-3.727,8.41-4.825
		c3.186-1.104,6.646-1.652,10.387-1.652c3.312,0,6.461,0.484,9.453,1.454c2.99,0.97,5.783,2.409,8.383,4.318v4.892
		c-2.561-2.408-5.322-4.2-8.275-5.376c-2.953-1.175-6.143-1.763-9.561-1.763c-6.191,0-11.311,1.763-15.352,5.288
		c-4.041,3.522-6.062,7.991-6.062,13.396c0,5.351,2.047,9.799,6.145,13.354c4.092,3.555,9.184,5.332,15.271,5.332
		c6.479,0,11.65-1.891,15.514-5.663c3.861-3.774,5.793-8.864,5.793-15.271L1178.471,284.009L1178.471,284.009z"/>
	<path display="inline" fill="#AB0800" stroke="#AB0800" stroke-miterlimit="10" d="M1192.836,325.83
		c0-2.967,0.658-5.779,1.975-8.438c1.318-2.658,3.24-5.093,5.771-7.294c2.457-2.058,5.26-3.638,8.41-4.736
		c3.148-1.104,6.471-1.652,9.961-1.652c3.488,0,6.809,0.551,9.959,1.652c3.148,1.101,5.953,2.682,8.41,4.736
		c2.49,2.113,4.387,4.511,5.688,7.185c1.299,2.674,1.949,5.521,1.949,8.549c0,2.997-0.65,5.832-1.949,8.505
		c-1.301,2.674-3.193,5.068-5.688,7.187c-2.457,2.086-5.262,3.673-8.41,4.76c-3.15,1.086-6.471,1.63-9.959,1.63
		c-3.49,0-6.812-0.544-9.961-1.63c-3.15-1.087-5.953-2.674-8.41-4.76c-2.527-2.177-4.449-4.601-5.771-7.271
		C1193.495,331.574,1192.836,328.769,1192.836,325.83z M1197.536,325.742c0,5.229,2.072,9.65,6.221,13.265
		c4.146,3.613,9.211,5.42,15.193,5.42c5.941,0,10.98-1.812,15.109-5.439c4.131-3.628,6.195-8.042,6.195-13.242
		c0-5.259-2.066-9.688-6.195-13.287c-4.129-3.598-9.168-5.396-15.109-5.396c-5.982,0-11.047,1.809-15.193,5.422
		C1199.608,316.091,1197.536,320.513,1197.536,325.742z"/>
	<path display="inline" fill="#AB0800" stroke="#AB0800" stroke-miterlimit="10" d="M1255.049,347.115v-26.089
		c0-5.376,1.699-9.606,5.104-12.691c3.395-3.085,8.031-4.627,13.906-4.627c3.562,0,6.701,0.69,9.43,2.071
		c2.723,1.381,5.045,3.452,6.969,6.214c2.029-2.791,4.395-4.87,7.104-6.236c2.703-1.366,5.818-2.049,9.346-2.049
		c5.873,0,10.525,1.542,13.965,4.627c3.434,3.085,5.152,7.315,5.152,12.691v26.089h-4.486v-27.234c0-3.815-1.344-6.911-4.031-9.273
		c-2.686-2.364-6.15-3.551-10.387-3.551c-4.307,0-7.797,1.187-10.467,3.551c-2.67,2.362-4.004,5.458-4.004,9.273v27.234h-4.381
		v-27.234c0-3.815-1.336-6.911-4.006-9.273c-2.67-2.364-6.141-3.551-10.412-3.551c-4.236,0-7.697,1.187-10.387,3.551
		c-2.688,2.362-4.031,5.458-4.031,9.273v27.234H1255.049L1255.049,347.115z"/>
</g>
<g>
	<g>
		<path fill="#AB0800" d="M0,269.106v-108.7c0-22.401,5.848-40.028,17.547-52.881C29.242,94.671,45.199,88.246,65.41,88.246
			c12.248,0,23.061,2.877,32.431,8.629c9.37,5.756,17.363,14.385,23.978,25.894c6.982-11.631,15.127-20.29,24.438-25.982
			c9.309-5.689,20.027-8.537,32.154-8.537c20.212,0,36.227,6.426,48.049,19.279c11.819,12.853,17.73,30.479,17.73,52.881v108.7
			h-15.434V155.633c0-15.912-4.625-28.797-13.873-38.649c-9.25-9.854-21.162-14.78-35.737-14.78
			c-14.822,0-26.825,4.929-36.013,14.78c-9.188,9.854-13.781,22.737-13.781,38.649v113.477h-15.066V155.633
			c0-15.912-4.594-28.797-13.78-38.649c-9.187-9.854-21.13-14.78-35.829-14.78c-14.578,0-26.49,4.929-35.737,14.78
			c-9.25,9.854-13.872,22.737-13.872,38.649v113.477L0,269.106L0,269.106z"/>
		<path fill="#AB0800" d="M291.227,269.106V6.169h35.097v262.938L291.227,269.106L291.227,269.106z"/>
		<path fill="#AB0800" d="M370.97,269.106v-98.234c0-26.194,6.981-46.942,20.946-62.245c13.964-15.301,32.582-22.952,55.856-22.952
			c23.271,0,41.826,7.651,55.673,22.952c13.842,15.303,20.764,36.051,20.764,62.245v98.234h-31.971v-104.11
			c0-14.198-4.138-25.766-12.402-34.703c-8.27-8.934-18.957-13.403-32.062-13.403c-12.985,0-23.676,4.473-32.063,13.403
			c-8.392,8.938-12.586,20.505-12.586,34.703v104.11H370.97z"/>
		<path fill="#AB0800" d="M577.31,88.98l51.634,141.75l51.443-141.75h33.256l-60.266,162.132c-2.818,7.591-6.219,13.1-10.197,16.522
			c-3.979,3.429-8.852,5.144-14.605,5.144c-5.76,0-10.564-1.715-14.422-5.144c-3.859-3.426-7.199-8.935-10.018-16.522L544.239,88.98
			H577.31z"/>
		<path fill="#AB0800" d="M724.485,178.767c0-12.485,2.322-24.356,6.98-35.62c4.652-11.264,11.393-21.42,20.211-30.48
			c8.695-8.812,18.467-15.516,29.309-20.104c10.84-4.594,22.385-6.889,34.635-6.889c12.246,0,23.887,2.295,34.91,6.889
			c11.021,4.59,20.822,11.292,29.396,20.104c8.695,8.814,15.344,18.912,19.938,30.297c4.594,11.384,6.891,23.318,6.891,35.808
			c0,12.729-2.297,24.816-6.891,36.265s-11.24,21.574-19.938,30.388c-8.574,8.813-18.375,15.519-29.396,20.106
			c-11.023,4.59-22.664,6.885-34.91,6.885c-12.25,0-23.795-2.295-34.635-6.885c-10.842-4.591-20.611-11.293-29.309-20.106
			c-8.818-8.934-15.559-19.096-20.211-30.479C726.809,203.556,724.485,191.5,724.485,178.767z M758.108,178.4
			c0,17.507,5.604,32.348,16.812,44.523c11.209,12.186,24.773,18.271,40.699,18.271c15.922,0,29.49-6.088,40.697-18.271
			c11.209-12.179,16.811-27.02,16.811-44.523c0-17.381-5.574-32.133-16.721-44.251s-24.744-18.182-40.789-18.182
			c-15.926,0-29.49,6.062-40.699,18.182C763.713,146.267,758.108,161.02,758.108,178.4z"/>
		<path fill="#AB0800" d="M936.704,37.751c0-5.385,1.896-9.975,5.695-13.771c3.795-3.793,8.451-5.691,13.965-5.691
			c5.512,0,10.135,1.867,13.871,5.6c3.734,3.736,5.604,8.355,5.604,13.863c0,5.632-1.869,10.374-5.604,14.23
			c-3.736,3.854-8.359,5.781-13.871,5.781c-5.395,0-10.016-1.955-13.873-5.876C938.633,47.974,936.704,43.26,936.704,37.751z
			 M940.194,269.106V88.98h32.338v180.126H940.194L940.194,269.106z"/>
		<path fill="#AB0800" d="M1127.975,119.827h-13.963c-22.664,0-40.729,5.417-54.203,16.25
			c-13.477,10.833-20.213,25.247-20.213,43.241c0,17.874,6.771,32.225,20.309,43.058c13.529,10.834,31.566,16.25,54.107,16.25
			h13.963v30.48h-16.168c-32.219,0-57.906-8.231-77.076-24.696c-19.176-16.462-28.758-38.344-28.758-65.644
			c0-14.688,3.432-28.396,10.289-41.132c6.859-12.729,16.602-23.438,29.215-32.132c8.818-5.877,18.189-10.1,28.111-12.67
			s22.66-3.854,38.219-3.854h16.168V119.827L1127.975,119.827z"/>
		<path fill="#AB0800" d="M1332.295,189.417c-4.533,25.707-14.947,46.027-31.236,60.961c-16.293,14.938-36.137,22.4-59.527,22.4
			c-7.965,0-15.834-1.072-23.611-3.213c-7.779-2.144-15.098-5.293-21.957-9.456c-14.455-8.813-25.662-20.318-33.623-34.521
			c-7.965-14.198-11.941-29.806-11.941-46.82c0-12.485,2.297-24.356,6.891-35.62c4.592-11.264,11.236-21.42,19.936-30.48
			c8.695-8.934,18.586-15.728,29.674-20.381c11.084-4.65,22.752-6.978,35.002-6.978c18.25,0,34.572,4.806,48.971,14.41
			c14.393,9.611,26.059,23.599,35.002,41.957l-118.15,65.367l-13.596-24.421l87.643-48.843
			c-5.391-5.996-11.453-10.525-18.188-13.587c-6.738-3.061-14.088-4.592-22.049-4.592c-16.17,0-29.797,6.029-40.885,18.087
			c-11.088,12.059-16.629,26.963-16.629,44.711c0,17.627,5.574,32.5,16.723,44.615c11.145,12.119,24.74,18.182,40.791,18.182
			c15.311,0,28.141-5.05,38.49-15.148c10.354-10.098,16.812-23.962,19.387-41.589L1332.295,189.417z"/>
	</g>
	<g>
		<path fill="#AB0800" d="M1360.225,103c-28.396,0-51.5-23.103-51.5-51.5c0-28.396,23.104-51.5,51.5-51.5
			c28.398,0,51.5,23.104,51.5,51.5C1411.725,79.897,1388.624,103,1360.225,103z M1360.225,11c-22.332,0-40.5,18.168-40.5,40.5
			s18.168,40.5,40.5,40.5s40.5-18.168,40.5-40.5S1382.557,11,1360.225,11z"/>
	</g>
	<g enable-background="new    ">
		<path fill="#AB0800" d="M1338.833,77.762V24.075h22.814c5.736,0,9.904,0.482,12.506,1.446c2.6,0.965,4.682,2.68,6.244,5.146
			s2.344,5.286,2.344,8.46c0,4.027-1.186,7.354-3.553,9.979s-5.908,4.278-10.619,4.963c2.344,1.367,4.277,2.868,5.805,4.504
			c1.525,1.636,3.582,4.541,6.17,8.716l6.555,10.474h-12.963l-7.838-11.682c-2.783-4.176-4.688-6.806-5.713-7.893
			c-1.025-1.086-2.111-1.831-3.26-2.233c-1.146-0.403-2.965-0.604-5.455-0.604h-2.197v22.411L1338.833,77.762L1338.833,77.762z
			 M1349.672,46.78h8.021c5.197,0,8.445-0.22,9.738-0.659c1.295-0.439,2.309-1.196,3.041-2.271c0.732-1.075,1.1-2.418,1.1-4.028
			c0-1.808-0.482-3.266-1.447-4.376c-0.965-1.111-2.324-1.813-4.082-2.106c-0.879-0.121-3.516-0.183-7.91-0.183h-8.461V46.78
			L1349.672,46.78z"/>
	</g>
</g>
</svg>
